<svg xmlns="http://www.w3.org/2000/svg" xmlns:xlink="http://www.w3.org/1999/xlink" width="1037" zoomAndPan="magnify" viewBox="0 0 777.75 432.749984" height="577" preserveAspectRatio="xMidYMid meet" version="1.0"><defs><clipPath id="dbd32fd05a"><path d="M 0.101562 0 L 777.402344 0 L 777.402344 432.5 L 0.101562 432.5 Z M 0.101562 0 " clip-rule="nonzero"/></clipPath><clipPath id="fff38081cf"><path d="M 236.023438 141.289062 L 541.84375 141.289062 L 541.84375 337.691406 L 236.023438 337.691406 Z M 236.023438 141.289062 " clip-rule="nonzero"/></clipPath><clipPath id="bbc908c983"><path d="M 369 94.832031 L 401 94.832031 L 401 133 L 369 133 Z M 369 94.832031 " clip-rule="nonzero"/></clipPath></defs><g clip-path="url(#dbd32fd05a)"><path fill="#ffffff" d="M 0.101562 0 L 777.402344 0 L 777.402344 432.5 L 0.101562 432.5 Z M 0.101562 0 " fill-opacity="1" fill-rule="nonzero"/><path fill="#ffffff" d="M 0.101562 0 L 777.402344 0 L 777.402344 432.5 L 0.101562 432.5 Z M 0.101562 0 " fill-opacity="1" fill-rule="nonzero"/></g><g clip-path="url(#fff38081cf)"><path fill="#f2c520" d="M 247.222656 337.691406 C 241.042969 337.691406 236.023438 332.671875 236.023438 326.496094 L 236.023438 153.125 C 236.023438 146.957031 241.042969 141.933594 247.222656 141.933594 L 530.648438 141.933594 C 536.824219 141.933594 541.851562 146.957031 541.851562 153.125 L 541.851562 326.496094 C 541.851562 332.671875 536.824219 337.691406 530.648438 337.691406 L 247.222656 337.691406 " fill-opacity="1" fill-rule="nonzero"/></g><path fill="#ffffff" d="M 531.742188 322.300781 C 531.742188 326.316406 528.484375 329.570312 524.464844 329.570312 L 253.40625 329.570312 C 249.386719 329.570312 246.128906 326.316406 246.128906 322.300781 L 246.128906 156.492188 C 246.128906 152.476562 249.386719 149.222656 253.40625 149.222656 L 524.464844 149.222656 C 528.484375 149.222656 531.742188 152.476562 531.742188 156.492188 L 531.742188 322.300781 " fill-opacity="1" fill-rule="nonzero"/><path fill="#f36131" d="M 364.375 306.425781 L 258.800781 306.425781 L 258.800781 175.933594 L 364.375 175.933594 L 364.375 306.425781 " fill-opacity="1" fill-rule="nonzero"/><path fill="#f2c520" d="M 517.1875 199.78125 L 382.566406 199.78125 L 382.566406 176.699219 L 517.1875 176.699219 L 517.1875 199.78125 " fill-opacity="1" fill-rule="nonzero"/><path fill="#e9e9e9" d="M 517.1875 258.566406 L 382.566406 258.566406 L 382.566406 247.023438 L 517.1875 247.023438 L 517.1875 258.566406 " fill-opacity="1" fill-rule="nonzero"/><path fill="#e9e9e9" d="M 517.1875 238.960938 L 382.566406 238.960938 L 382.566406 227.421875 L 517.1875 227.421875 L 517.1875 238.960938 " fill-opacity="1" fill-rule="nonzero"/><path fill="#e9e9e9" d="M 517.1875 219.804688 L 382.566406 219.804688 L 382.566406 208.265625 L 517.1875 208.265625 L 517.1875 219.804688 " fill-opacity="1" fill-rule="nonzero"/><path fill="#e9e9e9" d="M 517.1875 279.167969 L 382.566406 279.167969 L 382.566406 267.628906 L 517.1875 267.628906 L 517.1875 279.167969 " fill-opacity="1" fill-rule="nonzero"/><path fill="#e9e9e9" d="M 517.1875 301.847656 L 382.566406 301.847656 L 382.566406 290.308594 L 517.1875 290.308594 L 517.1875 301.847656 " fill-opacity="1" fill-rule="nonzero"/><path fill="#f2c520" d="M 407.480469 135.535156 L 360.75 135.535156 C 359.296875 135.535156 358.117188 134.355469 358.117188 132.90625 C 358.117188 131.453125 359.296875 130.273438 360.75 130.273438 L 407.480469 130.273438 C 408.933594 130.273438 410.113281 131.453125 410.113281 132.90625 C 410.113281 134.355469 408.933594 135.535156 407.480469 135.535156 Z M 416.445312 122.863281 L 351.78125 122.863281 L 345.4375 141.933594 L 422.789062 141.933594 L 416.445312 122.863281 " fill-opacity="1" fill-rule="nonzero"/><g clip-path="url(#bbc908c983)"><path fill="#f36131" d="M 384.730469 110.996094 C 382.050781 110.996094 379.878906 108.820312 379.878906 106.148438 C 379.878906 103.476562 382.050781 101.304688 384.730469 101.304688 C 387.410156 101.304688 389.578125 103.476562 389.578125 106.148438 C 389.578125 108.820312 387.410156 110.996094 384.730469 110.996094 Z M 369.773438 94.84375 L 369.773438 132.402344 L 400.699219 132.402344 L 400.699219 94.84375 L 369.773438 94.84375 " fill-opacity="1" fill-rule="nonzero"/></g><path fill="#ecb17e" d="M 322.242188 270.472656 C 322.242188 275.792969 317.925781 280.109375 312.59375 280.109375 L 309.546875 280.109375 C 304.21875 280.109375 299.898438 275.792969 299.898438 270.472656 C 299.898438 265.148438 304.21875 260.835938 309.546875 260.835938 L 312.59375 260.835938 C 317.925781 260.835938 322.242188 265.148438 322.242188 270.472656 " fill-opacity="1" fill-rule="nonzero"/><path fill="#f4c08f" d="M 347.214844 228.839844 C 346.753906 228.839844 346.300781 228.890625 345.859375 228.972656 C 342.5 213.410156 328.113281 201.707031 310.859375 201.707031 C 293.175781 201.707031 278.492188 214.015625 275.636719 230.175781 C 275.148438 230.074219 274.640625 230.019531 274.121094 230.019531 C 269.699219 230.019531 266.117188 233.71875 266.117188 238.277344 C 266.117188 242.839844 269.699219 246.539062 274.121094 246.539062 C 275.035156 246.539062 275.910156 246.371094 276.726562 246.078125 C 281.25 260.011719 294.820312 270.128906 310.859375 270.128906 C 327.273438 270.128906 341.089844 259.535156 345.285156 245.109375 C 345.90625 245.261719 346.550781 245.359375 347.214844 245.359375 C 351.636719 245.359375 355.21875 241.65625 355.21875 237.097656 C 355.21875 232.539062 351.636719 228.839844 347.214844 228.839844 " fill-opacity="1" fill-rule="nonzero"/><path fill="#231f20" d="M 302.648438 231.585938 C 302.648438 234.015625 300.925781 235.980469 298.796875 235.980469 C 296.671875 235.980469 294.945312 234.015625 294.945312 231.585938 C 294.945312 229.160156 296.671875 227.1875 298.796875 227.1875 C 300.925781 227.1875 302.648438 229.160156 302.648438 231.585938 " fill-opacity="1" fill-rule="nonzero"/><path fill="#231f20" d="M 326.558594 231.925781 C 326.558594 234.351562 324.832031 236.320312 322.707031 236.320312 C 320.582031 236.320312 318.859375 234.351562 318.859375 231.925781 C 318.859375 229.5 320.582031 227.527344 322.707031 227.527344 C 324.832031 227.527344 326.558594 229.5 326.558594 231.925781 " fill-opacity="1" fill-rule="nonzero"/><path fill="#231f20" d="M 310.917969 246.683594 C 307.824219 246.683594 306.488281 245.1875 305.953125 244.242188 C 305.074219 242.671875 305.242188 240.601562 306.371094 239.089844 C 307.511719 237.5625 309.394531 236.914062 311.410156 237.371094 C 311.820312 237.464844 312.074219 237.871094 311.984375 238.28125 C 311.886719 238.691406 311.484375 238.953125 311.070312 238.855469 C 309.644531 238.535156 308.375 238.953125 307.59375 240.003906 C 306.8125 241.039062 306.695312 242.441406 307.28125 243.492188 C 307.984375 244.75 309.574219 245.324219 311.761719 245.121094 C 312.167969 245.078125 312.550781 245.394531 312.59375 245.8125 C 312.632812 246.234375 312.320312 246.597656 311.902344 246.640625 C 311.554688 246.671875 311.226562 246.683594 310.917969 246.683594 " fill-opacity="1" fill-rule="nonzero"/><path fill="#231f20" d="M 322.707031 214.6875 C 321.609375 214.28125 320.542969 213.890625 319.558594 213.503906 C 310.652344 209.972656 296.488281 206.078125 287.386719 211.140625 C 282.023438 214.125 281.84375 223.386719 280.878906 228.546875 C 280.703125 229.511719 279.664062 240.328125 280.570312 240.5 C 277.203125 240.0625 277.324219 236.511719 275.785156 234.253906 C 274.097656 231.785156 271.980469 230.140625 268.835938 231.222656 C 268.460938 227.703125 268.519531 224.125 268.785156 220.597656 C 269.140625 215.84375 269.980469 211.386719 271.984375 207.015625 C 275.886719 198.507812 283.027344 191.539062 291.609375 187.890625 C 298.625 184.914062 304.828125 183.824219 312.523438 183.914062 C 318.273438 183.976562 325.40625 185.484375 330.832031 187.722656 C 338.332031 190.816406 344.289062 196.589844 348.117188 203.777344 C 350.59375 208.421875 351.699219 213.59375 352.210938 218.789062 C 352.601562 222.667969 352.738281 226.996094 351.738281 230.800781 C 352.039062 229.660156 348.5625 229.128906 347.9375 229.210938 C 342.082031 230.046875 343.296875 238.65625 338.921875 240.5 C 337.257812 236.988281 337.789062 231.515625 337.171875 227.699219 C 335.945312 220.164062 329.15625 217.089844 322.707031 214.6875 " fill-opacity="1" fill-rule="nonzero"/><path fill="#f2c520" d="M 326.402344 269.316406 L 322.667969 269.316406 C 322.714844 269.703125 322.746094 270.09375 322.746094 270.492188 C 322.746094 275.816406 318.425781 280.128906 313.097656 280.128906 L 310.050781 280.128906 C 304.722656 280.128906 300.40625 275.816406 300.40625 270.492188 C 300.40625 270.09375 300.4375 269.703125 300.480469 269.316406 L 296.746094 269.316406 C 286.214844 269.316406 277.679688 276.6875 277.679688 285.789062 L 277.679688 305.835938 L 345.46875 305.835938 L 345.46875 285.789062 C 345.46875 276.6875 336.933594 269.316406 326.402344 269.316406 " fill-opacity="1" fill-rule="nonzero"/><path fill="#cd4221" d="M 300.480469 269.316406 C 300.480469 269.316406 299.554688 280.644531 311.40625 280.308594 C 311.40625 280.308594 322.589844 281.15625 322.667969 269.316406 L 324.949219 269.476562 C 324.949219 269.476562 326.304688 282.667969 311.40625 283.007812 C 311.40625 283.007812 298.03125 283.683594 298.371094 269.476562 L 300.480469 269.316406 " fill-opacity="1" fill-rule="nonzero"/><path fill="#231f20" d="M 328.824219 225.023438 C 328.464844 225.023438 328.144531 224.765625 328.082031 224.398438 C 327.605469 221.808594 325.464844 220.617188 323.628906 220.355469 C 321.550781 220.0625 318.917969 220.847656 317.734375 223.238281 C 317.550781 223.617188 317.09375 223.773438 316.714844 223.585938 C 316.339844 223.398438 316.1875 222.945312 316.367188 222.570312 C 317.679688 219.90625 320.679688 218.40625 323.835938 218.851562 C 326.855469 219.269531 329.058594 221.292969 329.578125 224.125 C 329.652344 224.539062 329.378906 224.933594 328.964844 225.007812 C 328.917969 225.019531 328.871094 225.023438 328.824219 225.023438 " fill-opacity="1" fill-rule="nonzero"/><path fill="#231f20" d="M 292.589844 225.007812 C 292.53125 225.007812 292.476562 225.003906 292.414062 224.988281 C 292.007812 224.894531 291.753906 224.484375 291.847656 224.074219 C 292.515625 221.183594 295.101562 219.046875 298.269531 218.757812 C 301.304688 218.480469 303.914062 219.945312 305.0625 222.585938 C 305.230469 222.976562 305.050781 223.421875 304.664062 223.585938 C 304.28125 223.757812 303.832031 223.582031 303.664062 223.199219 C 302.617188 220.78125 300.269531 220.105469 298.40625 220.273438 C 296.316406 220.464844 293.933594 221.820312 293.332031 224.417969 C 293.25 224.769531 292.9375 225.007812 292.589844 225.007812 " fill-opacity="1" fill-rule="nonzero"/><path fill="#ffffff" d="M 299.863281 250.144531 C 299.949219 250.175781 300.039062 250.199219 300.128906 250.226562 C 300.125 250.222656 300.125 250.222656 300.125 250.222656 L 299.863281 250.144531 " fill-opacity="1" fill-rule="nonzero"/><path fill="#ffffff" d="M 323.160156 247.410156 C 320.675781 250.007812 316.496094 250.121094 313.195312 250.601562 C 309.28125 251.171875 306.136719 251.617188 302.539062 250.886719 C 301.753906 250.515625 300.921875 250.0625 300.074219 250.011719 C 300.09375 250.082031 300.113281 250.148438 300.125 250.222656 L 301.710938 250.695312 C 301.195312 250.570312 300.671875 250.414062 300.128906 250.226562 C 300.589844 252.058594 301.050781 253.773438 301.722656 255.550781 C 302.519531 257.660156 304.054688 258.953125 305.636719 260.488281 C 308.976562 263.710938 315.871094 264.722656 319.242188 260.984375 C 320.878906 259.171875 323.109375 257.324219 323.703125 254.90625 C 324.300781 252.449219 323.671875 249.777344 323.160156 247.410156 " fill-opacity="1" fill-rule="nonzero"/><path fill="#231f20" d="M 308.570312 257.332031 C 306.125 257.332031 303.777344 257 301.730469 256.3125 C 301.484375 256.230469 301.355469 255.96875 301.433594 255.726562 C 301.519531 255.480469 301.785156 255.347656 302.027344 255.433594 C 308.261719 257.53125 317.816406 256.027344 323.3125 252.089844 C 323.519531 251.941406 323.8125 251.984375 323.960938 252.195312 C 324.113281 252.402344 324.0625 252.691406 323.855469 252.84375 C 319.851562 255.714844 313.984375 257.332031 308.570312 257.332031 " fill-opacity="1" fill-rule="nonzero"/><path fill="#231f20" d="M 300.707031 251.042969 C 301.320312 254.050781 302.960938 257.148438 305.234375 259.4375 C 306.8125 261.023438 309.394531 262.917969 312.730469 262.921875 L 312.734375 263.617188 L 312.734375 262.921875 C 315.917969 262.921875 318.28125 262.039062 319.960938 260.234375 C 322.109375 257.917969 323.089844 254.058594 322.945312 248.476562 C 320.144531 250.910156 313.136719 252.34375 307.644531 252.34375 C 305.378906 252.34375 302.496094 252.097656 300.707031 251.042969 Z M 312.734375 264.308594 L 312.730469 264.308594 C 309.714844 264.308594 306.78125 262.964844 304.246094 260.421875 C 301.0625 257.214844 299.023438 252.523438 299.046875 248.460938 C 299.050781 248.078125 299.355469 247.769531 299.75 247.769531 C 300.136719 247.769531 300.449219 248.085938 300.445312 248.46875 C 300.441406 248.828125 300.578125 249.140625 300.863281 249.425781 C 301.828125 250.394531 304.300781 250.953125 307.644531 250.953125 C 313.683594 250.953125 320.402344 249.207031 322.320312 247.140625 C 322.683594 246.753906 322.84375 246.390625 322.816406 246.039062 C 322.789062 245.652344 323.078125 245.316406 323.460938 245.292969 C 323.84375 245.261719 324.179688 245.546875 324.207031 245.933594 C 324.769531 253.359375 323.75 258.203125 320.984375 261.179688 C 319.054688 263.257812 316.277344 264.308594 312.734375 264.308594 " fill-opacity="1" fill-rule="nonzero"/><path fill="#231f20" d="M 310.332031 261.382812 C 309.839844 260.214844 309.445312 259 309.070312 257.828125 C 308.714844 256.722656 308.347656 255.585938 307.902344 254.492188 L 308.460938 254.261719 C 308.917969 255.378906 309.289062 256.53125 309.644531 257.640625 C 310.023438 258.800781 310.410156 260.003906 310.894531 261.144531 L 310.332031 261.382812 " fill-opacity="1" fill-rule="nonzero"/><path fill="#231f20" d="M 316 260.691406 C 315.777344 259.445312 315.671875 258.171875 315.566406 256.941406 C 315.464844 255.792969 315.363281 254.601562 315.171875 253.433594 L 315.773438 253.335938 C 315.964844 254.527344 316.070312 255.726562 316.171875 256.886719 C 316.273438 258.105469 316.386719 259.367188 316.59375 260.585938 L 316 260.691406 " fill-opacity="1" fill-rule="nonzero"/></svg>