<svg xmlns="http://www.w3.org/2000/svg" xmlns:xlink="http://www.w3.org/1999/xlink" width="1037" zoomAndPan="magnify" viewBox="0 0 777.75 432.749984" height="577" preserveAspectRatio="xMidYMid meet" version="1.0"><defs><clipPath id="136ebd8f26"><path d="M 0.101562 0 L 777.402344 0 L 777.402344 432.5 L 0.101562 432.5 Z M 0.101562 0 " clip-rule="nonzero"/></clipPath><clipPath id="dbfc63b68e"><path d="M 210.898438 38.398438 L 566.941406 38.398438 L 566.941406 394.441406 L 210.898438 394.441406 Z M 210.898438 38.398438 " clip-rule="nonzero"/></clipPath><clipPath id="ef2d04a651"><path d="M 229 78 L 566.941406 78 L 566.941406 218 L 229 218 Z M 229 78 " clip-rule="nonzero"/></clipPath><clipPath id="281fcfad8b"><path d="M 227 292 L 551 292 L 551 394.441406 L 227 394.441406 Z M 227 292 " clip-rule="nonzero"/></clipPath><clipPath id="9eb9c6d1c2"><path d="M 210.898438 130 L 566.941406 130 L 566.941406 394.441406 L 210.898438 394.441406 Z M 210.898438 130 " clip-rule="nonzero"/></clipPath><clipPath id="644af0bb75"><path d="M 211 219 L 560 219 L 560 394.441406 L 211 394.441406 Z M 211 219 " clip-rule="nonzero"/></clipPath><clipPath id="182a3fe6bf"><path d="M 255 333 L 523 333 L 523 394.441406 L 255 394.441406 Z M 255 333 " clip-rule="nonzero"/></clipPath><clipPath id="ebb1d70b2b"><path d="M 330 333 L 446 333 L 446 394.441406 L 330 394.441406 Z M 330 333 " clip-rule="nonzero"/></clipPath></defs><g clip-path="url(#136ebd8f26)"><path fill="#ffffff" d="M 0.101562 0 L 777.402344 0 L 777.402344 432.5 L 0.101562 432.5 Z M 0.101562 0 " fill-opacity="1" fill-rule="nonzero"/><path fill="#ffffff" d="M 0.101562 0 L 777.402344 0 L 777.402344 432.5 L 0.101562 432.5 Z M 0.101562 0 " fill-opacity="1" fill-rule="nonzero"/></g><g clip-path="url(#dbfc63b68e)"><path fill="#fac180" d="M 567.023438 216.488281 C 567.023438 314.816406 487.316406 394.523438 388.988281 394.523438 C 330.144531 394.523438 277.972656 365.984375 245.566406 321.988281 C 233.589844 305.742188 224.324219 287.390625 218.40625 267.585938 C 213.546875 251.394531 210.953125 234.242188 210.953125 216.488281 C 210.953125 118.160156 290.660156 38.453125 388.988281 38.453125 C 487.316406 38.453125 567.023438 118.160156 567.023438 216.488281 Z M 567.023438 216.488281 " fill-opacity="1" fill-rule="nonzero"/></g><g clip-path="url(#ef2d04a651)"><path fill="#fdcf85" d="M 288.890625 169.929688 C 330.3125 186.496094 374.320312 195.554688 418.703125 199.25 C 459.890625 202.683594 501.972656 200.1875 542.445312 209.816406 C 550.933594 211.839844 559.152344 214.492188 566.996094 217.800781 C 566.996094 217.367188 567.011719 216.933594 567.011719 216.503906 C 567.011719 186.691406 559.667969 158.582031 546.71875 133.890625 C 529.984375 135.707031 513.347656 138.398438 496.679688 140.785156 C 458.691406 146.214844 420.867188 148.867188 383.140625 139.988281 C 350.035156 132.1875 317.347656 117.226562 292.042969 94.183594 C 286.976562 89.5625 281.5625 84.316406 276.382812 78.59375 C 256.691406 94.6875 240.527344 114.910156 229.179688 137.953125 C 247.3125 151.265625 267.953125 161.554688 288.890625 169.929688 Z M 288.890625 169.929688 " fill-opacity="1" fill-rule="nonzero"/></g><g clip-path="url(#281fcfad8b)"><path fill="#e83f56" d="M 227.953125 292.484375 C 256.464844 352.792969 317.851562 394.523438 388.988281 394.523438 C 460.128906 394.523438 521.511719 352.792969 550.023438 292.484375 Z M 227.953125 292.484375 " fill-opacity="1" fill-rule="nonzero"/></g><path fill="#ffffff" d="M 489.871094 137.953125 C 489.871094 139.734375 489.78125 141.507812 489.609375 143.28125 C 489.433594 145.054688 489.171875 146.8125 488.824219 148.558594 C 488.476562 150.304688 488.046875 152.027344 487.53125 153.734375 C 487.011719 155.4375 486.414062 157.109375 485.730469 158.757812 C 485.050781 160.402344 484.289062 162.007812 483.453125 163.578125 C 482.613281 165.148438 481.699219 166.675781 480.707031 168.15625 C 479.71875 169.636719 478.660156 171.0625 477.53125 172.441406 C 476.402344 173.816406 475.207031 175.132812 473.949219 176.394531 C 472.6875 177.652344 471.371094 178.847656 469.996094 179.976562 C 468.617188 181.105469 467.191406 182.164062 465.710938 183.152344 C 464.230469 184.140625 462.703125 185.058594 461.132812 185.894531 C 459.5625 186.734375 457.957031 187.496094 456.3125 188.175781 C 454.667969 188.859375 452.992188 189.457031 451.289062 189.972656 C 449.585938 190.492188 447.859375 190.921875 446.113281 191.269531 C 444.367188 191.617188 442.609375 191.878906 440.835938 192.054688 C 439.0625 192.226562 437.289062 192.316406 435.507812 192.316406 C 433.726562 192.316406 431.949219 192.226562 430.179688 192.054688 C 428.40625 191.878906 426.648438 191.617188 424.902344 191.269531 C 423.15625 190.921875 421.429688 190.492188 419.726562 189.972656 C 418.023438 189.457031 416.347656 188.859375 414.703125 188.175781 C 413.058594 187.496094 411.453125 186.734375 409.882812 185.894531 C 408.3125 185.058594 406.785156 184.140625 405.304688 183.152344 C 403.824219 182.164062 402.398438 181.105469 401.019531 179.976562 C 399.644531 178.847656 398.328125 177.652344 397.066406 176.394531 C 395.808594 175.132812 394.613281 173.816406 393.484375 172.441406 C 392.355469 171.0625 391.296875 169.636719 390.308594 168.15625 C 389.316406 166.675781 388.402344 165.148438 387.5625 163.578125 C 386.726562 162.007812 385.964844 160.402344 385.28125 158.757812 C 384.601562 157.109375 384.003906 155.4375 383.484375 153.734375 C 382.96875 152.03125 382.535156 150.304688 382.1875 148.558594 C 381.84375 146.8125 381.582031 145.054688 381.40625 143.28125 C 381.230469 141.507812 381.144531 139.734375 381.144531 137.953125 C 381.144531 136.171875 381.230469 134.394531 381.40625 132.625 C 381.582031 130.851562 381.84375 129.09375 382.1875 127.347656 C 382.535156 125.601562 382.96875 123.875 383.484375 122.171875 C 384.003906 120.46875 384.601562 118.792969 385.28125 117.148438 C 385.964844 115.503906 386.726562 113.894531 387.5625 112.324219 C 388.402344 110.753906 389.316406 109.230469 390.308594 107.75 C 391.296875 106.269531 392.355469 104.839844 393.484375 103.464844 C 394.613281 102.089844 395.808594 100.769531 397.066406 99.511719 C 398.328125 98.253906 399.644531 97.058594 401.019531 95.929688 C 402.398438 94.800781 403.824219 93.742188 405.304688 92.75 C 406.785156 91.761719 408.3125 90.847656 409.882812 90.007812 C 411.453125 89.167969 413.058594 88.410156 414.703125 87.726562 C 416.347656 87.046875 418.023438 86.449219 419.726562 85.929688 C 421.429688 85.414062 423.15625 84.980469 424.902344 84.632812 C 426.648438 84.285156 428.40625 84.027344 430.179688 83.851562 C 431.949219 83.675781 433.726562 83.589844 435.507812 83.589844 C 437.289062 83.589844 439.0625 83.675781 440.835938 83.851562 C 442.609375 84.027344 444.367188 84.285156 446.113281 84.632812 C 447.859375 84.980469 449.585938 85.414062 451.289062 85.929688 C 452.992188 86.449219 454.667969 87.046875 456.3125 87.726562 C 457.957031 88.410156 459.5625 89.167969 461.132812 90.007812 C 462.703125 90.847656 464.230469 91.761719 465.710938 92.75 C 467.191406 93.742188 468.617188 94.800781 469.996094 95.929688 C 471.371094 97.058594 472.6875 98.253906 473.949219 99.511719 C 475.207031 100.769531 476.402344 102.089844 477.53125 103.464844 C 478.660156 104.839844 479.71875 106.269531 480.707031 107.75 C 481.699219 109.230469 482.613281 110.753906 483.453125 112.324219 C 484.289062 113.894531 485.050781 115.503906 485.730469 117.148438 C 486.414062 118.792969 487.011719 120.46875 487.53125 122.171875 C 488.046875 123.875 488.476562 125.601562 488.824219 127.347656 C 489.171875 129.09375 489.433594 130.851562 489.609375 132.625 C 489.78125 134.394531 489.871094 136.171875 489.871094 137.953125 Z M 489.871094 137.953125 " fill-opacity="0.25" fill-rule="nonzero"/><path fill="#ffffff" d="M 505.558594 137.953125 C 505.558594 139.097656 505.53125 140.246094 505.472656 141.390625 C 505.417969 142.535156 505.332031 143.675781 505.222656 144.820312 C 505.109375 145.960938 504.96875 147.097656 504.800781 148.230469 C 504.632812 149.363281 504.4375 150.492188 504.210938 151.617188 C 503.988281 152.742188 503.738281 153.859375 503.457031 154.972656 C 503.179688 156.085938 502.875 157.191406 502.542969 158.285156 C 502.207031 159.382812 501.847656 160.472656 501.464844 161.550781 C 501.078125 162.632812 500.664062 163.699219 500.226562 164.757812 C 499.785156 165.820312 499.324219 166.867188 498.832031 167.902344 C 498.34375 168.9375 497.828125 169.960938 497.285156 170.972656 C 496.746094 171.984375 496.179688 172.980469 495.59375 173.964844 C 495.003906 174.949219 494.390625 175.917969 493.753906 176.871094 C 493.117188 177.824219 492.457031 178.761719 491.773438 179.679688 C 491.089844 180.601562 490.382812 181.503906 489.65625 182.390625 C 488.929688 183.277344 488.179688 184.144531 487.410156 184.996094 C 486.640625 185.84375 485.851562 186.675781 485.039062 187.484375 C 484.230469 188.296875 483.398438 189.085938 482.550781 189.855469 C 481.699219 190.625 480.832031 191.375 479.945312 192.101562 C 479.0625 192.828125 478.15625 193.535156 477.238281 194.21875 C 476.316406 194.898438 475.378906 195.558594 474.425781 196.195312 C 473.472656 196.835938 472.503906 197.445312 471.519531 198.035156 C 470.539062 198.625 469.539062 199.191406 468.527344 199.730469 C 467.519531 200.273438 466.496094 200.785156 465.457031 201.277344 C 464.421875 201.765625 463.375 202.230469 462.316406 202.671875 C 461.253906 203.109375 460.1875 203.523438 459.105469 203.90625 C 458.027344 204.292969 456.9375 204.652344 455.84375 204.988281 C 454.746094 205.320312 453.640625 205.625 452.527344 205.902344 C 451.417969 206.183594 450.296875 206.433594 449.171875 206.65625 C 448.050781 206.878906 446.921875 207.078125 445.785156 207.246094 C 444.652344 207.414062 443.515625 207.554688 442.375 207.664062 C 441.234375 207.777344 440.089844 207.863281 438.945312 207.917969 C 437.800781 207.976562 436.652344 208.003906 435.507812 208.003906 C 434.359375 208.003906 433.214844 207.976562 432.070312 207.917969 C 430.925781 207.863281 429.78125 207.777344 428.640625 207.664062 C 427.5 207.554688 426.363281 207.414062 425.230469 207.246094 C 424.09375 207.078125 422.964844 206.878906 421.839844 206.65625 C 420.71875 206.433594 419.597656 206.183594 418.488281 205.902344 C 417.375 205.625 416.269531 205.320312 415.171875 204.988281 C 414.074219 204.652344 412.988281 204.292969 411.910156 203.90625 C 410.828125 203.523438 409.757812 203.109375 408.699219 202.671875 C 407.640625 202.230469 406.59375 201.765625 405.558594 201.277344 C 404.519531 200.785156 403.496094 200.273438 402.484375 199.730469 C 401.476562 199.191406 400.476562 198.625 399.496094 198.035156 C 398.511719 197.445312 397.542969 196.835938 396.589844 196.195312 C 395.636719 195.558594 394.699219 194.898438 393.777344 194.21875 C 392.859375 193.535156 391.953125 192.828125 391.066406 192.101562 C 390.183594 191.375 389.3125 190.625 388.464844 189.855469 C 387.613281 189.085938 386.785156 188.296875 385.972656 187.484375 C 385.164062 186.675781 384.375 185.84375 383.605469 184.996094 C 382.832031 184.144531 382.085938 183.277344 381.359375 182.390625 C 380.628906 181.503906 379.925781 180.601562 379.242188 179.679688 C 378.558594 178.761719 377.898438 177.824219 377.261719 176.871094 C 376.625 175.917969 376.011719 174.949219 375.421875 173.964844 C 374.832031 172.980469 374.269531 171.984375 373.730469 170.972656 C 373.1875 169.960938 372.671875 168.9375 372.183594 167.902344 C 371.691406 166.867188 371.226562 165.820312 370.789062 164.757812 C 370.351562 163.699219 369.9375 162.632812 369.550781 161.550781 C 369.164062 160.472656 368.804688 159.382812 368.472656 158.285156 C 368.140625 157.191406 367.835938 156.085938 367.554688 154.972656 C 367.277344 153.859375 367.027344 152.742188 366.804688 151.617188 C 366.578125 150.496094 366.382812 149.363281 366.214844 148.230469 C 366.046875 147.097656 365.90625 145.960938 365.792969 144.820312 C 365.683594 143.675781 365.597656 142.535156 365.542969 141.390625 C 365.484375 140.246094 365.457031 139.097656 365.457031 137.953125 C 365.457031 136.804688 365.484375 135.660156 365.542969 134.515625 C 365.597656 133.371094 365.683594 132.226562 365.792969 131.085938 C 365.90625 129.945312 366.046875 128.808594 366.214844 127.675781 C 366.382812 126.539062 366.578125 125.410156 366.804688 124.285156 C 367.027344 123.160156 367.277344 122.042969 367.554688 120.929688 C 367.835938 119.820312 368.140625 118.714844 368.472656 117.617188 C 368.804688 116.519531 369.164062 115.433594 369.550781 114.351562 C 369.9375 113.273438 370.351562 112.203125 370.789062 111.144531 C 371.226562 110.085938 371.691406 109.039062 372.183594 108.003906 C 372.671875 106.964844 373.1875 105.941406 373.730469 104.929688 C 374.269531 103.917969 374.832031 102.921875 375.421875 101.9375 C 376.011719 100.957031 376.625 99.988281 377.261719 99.035156 C 377.898438 98.082031 378.558594 97.144531 379.242188 96.222656 C 379.925781 95.300781 380.628906 94.398438 381.359375 93.511719 C 382.085938 92.625 382.832031 91.757812 383.605469 90.910156 C 384.375 90.058594 385.164062 89.230469 385.972656 88.417969 C 386.785156 87.609375 387.613281 86.820312 388.464844 86.046875 C 389.3125 85.277344 390.183594 84.53125 391.066406 83.800781 C 391.953125 83.074219 392.859375 82.371094 393.777344 81.6875 C 394.699219 81.003906 395.636719 80.34375 396.589844 79.707031 C 397.542969 79.070312 398.511719 78.457031 399.496094 77.867188 C 400.476562 77.277344 401.476562 76.714844 402.484375 76.171875 C 403.496094 75.632812 404.519531 75.117188 405.558594 74.628906 C 406.59375 74.136719 407.640625 73.671875 408.699219 73.234375 C 409.757812 72.796875 410.828125 72.382812 411.910156 71.996094 C 412.988281 71.609375 414.074219 71.25 415.171875 70.917969 C 416.269531 70.585938 417.375 70.28125 418.488281 70 C 419.597656 69.722656 420.71875 69.472656 421.839844 69.246094 C 422.964844 69.023438 424.09375 68.828125 425.230469 68.660156 C 426.363281 68.492188 427.5 68.351562 428.640625 68.238281 C 429.78125 68.125 430.925781 68.042969 432.070312 67.988281 C 433.214844 67.929688 434.359375 67.902344 435.507812 67.902344 C 436.652344 67.902344 437.800781 67.929688 438.945312 67.988281 C 440.089844 68.042969 441.234375 68.125 442.375 68.238281 C 443.515625 68.351562 444.652344 68.492188 445.785156 68.660156 C 446.921875 68.828125 448.050781 69.023438 449.171875 69.246094 C 450.296875 69.472656 451.417969 69.722656 452.527344 70 C 453.640625 70.28125 454.746094 70.585938 455.84375 70.917969 C 456.9375 71.25 458.027344 71.609375 459.105469 71.996094 C 460.1875 72.382812 461.253906 72.796875 462.316406 73.234375 C 463.375 73.671875 464.421875 74.136719 465.457031 74.628906 C 466.496094 75.117188 467.519531 75.632812 468.527344 76.171875 C 469.539062 76.714844 470.539062 77.277344 471.519531 77.867188 C 472.503906 78.457031 473.472656 79.070312 474.425781 79.707031 C 475.378906 80.34375 476.316406 81.003906 477.238281 81.6875 C 478.15625 82.371094 479.0625 83.074219 479.945312 83.800781 C 480.832031 84.53125 481.699219 85.277344 482.550781 86.046875 C 483.398438 86.816406 484.230469 87.609375 485.039062 88.417969 C 485.851562 89.230469 486.640625 90.058594 487.410156 90.910156 C 488.179688 91.757812 488.929688 92.625 489.65625 93.511719 C 490.382812 94.398438 491.089844 95.300781 491.773438 96.222656 C 492.457031 97.144531 493.117188 98.082031 493.753906 99.035156 C 494.390625 99.988281 495.003906 100.957031 495.59375 101.9375 C 496.179688 102.921875 496.746094 103.917969 497.285156 104.929688 C 497.828125 105.941406 498.34375 106.964844 498.832031 108.003906 C 499.324219 109.039062 499.785156 110.085938 500.226562 111.144531 C 500.664062 112.203125 501.078125 113.273438 501.464844 114.351562 C 501.847656 115.433594 502.207031 116.519531 502.542969 117.617188 C 502.875 118.714844 503.179688 119.820312 503.457031 120.929688 C 503.738281 122.042969 503.988281 123.160156 504.210938 124.285156 C 504.4375 125.410156 504.632812 126.539062 504.800781 127.675781 C 504.96875 128.808594 505.109375 129.945312 505.222656 131.085938 C 505.332031 132.226562 505.417969 133.371094 505.472656 134.515625 C 505.53125 135.660156 505.558594 136.804688 505.558594 137.953125 Z M 505.558594 137.953125 " fill-opacity="0.25" fill-rule="nonzero"/><path fill="#fff48f" d="M 474.910156 137.953125 C 474.910156 139.242188 474.84375 140.53125 474.71875 141.8125 C 474.59375 143.097656 474.402344 144.375 474.152344 145.640625 C 473.898438 146.90625 473.585938 148.15625 473.210938 149.390625 C 472.835938 150.625 472.402344 151.839844 471.910156 153.03125 C 471.414062 154.222656 470.863281 155.386719 470.257812 156.527344 C 469.648438 157.664062 468.984375 158.769531 468.269531 159.84375 C 467.550781 160.914062 466.785156 161.949219 465.964844 162.949219 C 465.144531 163.945312 464.28125 164.902344 463.367188 165.8125 C 462.457031 166.726562 461.5 167.589844 460.503906 168.410156 C 459.503906 169.226562 458.46875 169.996094 457.398438 170.710938 C 456.324219 171.429688 455.21875 172.09375 454.082031 172.699219 C 452.941406 173.308594 451.777344 173.859375 450.585938 174.355469 C 449.394531 174.847656 448.179688 175.28125 446.945312 175.65625 C 445.710938 176.03125 444.460938 176.34375 443.195312 176.597656 C 441.929688 176.847656 440.652344 177.035156 439.371094 177.164062 C 438.085938 177.289062 436.796875 177.351562 435.507812 177.351562 C 434.21875 177.351562 432.929688 177.289062 431.644531 177.164062 C 430.363281 177.035156 429.085938 176.847656 427.820312 176.597656 C 426.554688 176.34375 425.304688 176.03125 424.070312 175.65625 C 422.835938 175.28125 421.621094 174.847656 420.429688 174.355469 C 419.238281 173.859375 418.070312 173.308594 416.933594 172.699219 C 415.796875 172.09375 414.691406 171.429688 413.617188 170.714844 C 412.542969 169.996094 411.507812 169.226562 410.511719 168.410156 C 409.515625 167.589844 408.558594 166.726562 407.648438 165.8125 C 406.734375 164.902344 405.867188 163.945312 405.050781 162.949219 C 404.230469 161.949219 403.464844 160.914062 402.746094 159.84375 C 402.03125 158.769531 401.367188 157.664062 400.757812 156.527344 C 400.152344 155.386719 399.601562 154.222656 399.105469 153.03125 C 398.613281 151.839844 398.179688 150.625 397.804688 149.390625 C 397.429688 148.15625 397.117188 146.90625 396.863281 145.640625 C 396.613281 144.375 396.421875 143.097656 396.296875 141.8125 C 396.171875 140.53125 396.105469 139.242188 396.105469 137.953125 C 396.105469 136.660156 396.171875 135.375 396.296875 134.089844 C 396.421875 132.804688 396.613281 131.53125 396.863281 130.265625 C 397.117188 129 397.429688 127.75 397.804688 126.515625 C 398.179688 125.28125 398.613281 124.066406 399.105469 122.875 C 399.601562 121.683594 400.152344 120.515625 400.757812 119.378906 C 401.367188 118.242188 402.03125 117.136719 402.746094 116.0625 C 403.464844 114.988281 404.230469 113.953125 405.050781 112.957031 C 405.867188 111.960938 406.734375 111.003906 407.648438 110.09375 C 408.558594 109.179688 409.515625 108.3125 410.511719 107.496094 C 411.507812 106.675781 412.542969 105.910156 413.617188 105.191406 C 414.691406 104.476562 415.796875 103.8125 416.933594 103.203125 C 418.070312 102.597656 419.238281 102.042969 420.429688 101.550781 C 421.621094 101.058594 422.835938 100.621094 424.070312 100.25 C 425.304688 99.875 426.554688 99.558594 427.820312 99.308594 C 429.085938 99.058594 430.363281 98.867188 431.644531 98.742188 C 432.929688 98.613281 434.21875 98.550781 435.507812 98.550781 C 436.796875 98.550781 438.085938 98.613281 439.371094 98.742188 C 440.652344 98.867188 441.929688 99.058594 443.195312 99.308594 C 444.460938 99.558594 445.710938 99.875 446.945312 100.25 C 448.179688 100.621094 449.394531 101.058594 450.585938 101.550781 C 451.777344 102.042969 452.941406 102.597656 454.082031 103.203125 C 455.21875 103.8125 456.324219 104.476562 457.398438 105.191406 C 458.46875 105.910156 459.503906 106.675781 460.503906 107.496094 C 461.5 108.3125 462.457031 109.179688 463.367188 110.09375 C 464.28125 111.003906 465.144531 111.960938 465.964844 112.957031 C 466.785156 113.953125 467.550781 114.988281 468.269531 116.0625 C 468.984375 117.136719 469.648438 118.242188 470.257812 119.378906 C 470.863281 120.515625 471.414062 121.683594 471.910156 122.875 C 472.402344 124.066406 472.835938 125.28125 473.210938 126.515625 C 473.585938 127.75 473.898438 129 474.152344 130.265625 C 474.402344 131.53125 474.59375 132.804688 474.71875 134.089844 C 474.84375 135.375 474.910156 136.660156 474.910156 137.953125 Z M 474.910156 137.953125 " fill-opacity="1" fill-rule="nonzero"/><g clip-path="url(#9eb9c6d1c2)"><path fill="#36566c" d="M 566.996094 214.507812 L 522.277344 214.507812 L 522.277344 227.5 L 514.851562 227.5 L 514.851562 184.804688 L 473.078125 184.804688 L 473.078125 258.136719 L 466.574219 258.136719 L 466.574219 152.3125 L 410.886719 184.804688 L 410.886719 238.636719 L 392.324219 238.636719 L 392.324219 162.515625 L 336.636719 162.515625 L 336.636719 211.714844 L 321.785156 211.714844 L 321.785156 150.917969 L 289.292969 130.039062 L 289.292969 174.589844 L 283.726562 174.589844 L 283.726562 159.738281 L 256.800781 159.738281 L 256.800781 210.792969 L 211.050781 210.792969 C 210.996094 212.679688 210.953125 214.578125 210.953125 216.488281 C 210.953125 314.816406 290.660156 394.523438 388.988281 394.523438 C 487.316406 394.523438 567.023438 314.816406 567.023438 216.488281 C 567.023438 215.832031 567.011719 215.175781 566.996094 214.507812 Z M 566.996094 214.507812 " fill-opacity="1" fill-rule="nonzero"/></g><g clip-path="url(#644af0bb75)"><path fill="#3c6589" d="M 521.34375 266.496094 L 521.34375 299.910156 L 513.917969 299.910156 L 513.917969 272.988281 L 512.984375 272.988281 L 512.984375 273.921875 L 466.574219 273.921875 L 466.574219 314.761719 L 450.789062 314.761719 L 450.789062 233.070312 L 422.945312 233.070312 L 422.945312 259.058594 L 387.675781 259.058594 L 387.675781 302.6875 L 381.171875 302.6875 L 381.171875 270.195312 L 334.765625 270.195312 L 334.765625 293.40625 L 334.765625 219.140625 L 292.992188 246.984375 L 292.992188 274.828125 L 286.488281 274.828125 L 286.488281 227.488281 L 247.507812 227.488281 L 247.507812 246.984375 L 235.433594 246.984375 L 235.433594 234.910156 L 211.902344 234.910156 C 221.128906 324.570312 296.886719 394.496094 388.988281 394.496094 C 469.953125 394.496094 538.289062 340.441406 559.894531 266.46875 L 521.34375 266.46875 Z M 521.34375 266.496094 " fill-opacity="1" fill-rule="nonzero"/></g><g clip-path="url(#182a3fe6bf)"><path fill="#b8d15c" d="M 255.027344 333.753906 C 287.660156 371.007812 335.574219 394.523438 388.988281 394.523438 C 442.402344 394.523438 490.316406 370.992188 522.949219 333.753906 Z M 255.027344 333.753906 " fill-opacity="1" fill-rule="nonzero"/></g><g clip-path="url(#ebb1d70b2b)"><path fill="#f6d164" d="M 416.820312 333.753906 L 361.269531 333.753906 C 357.808594 338.667969 354.292969 343.539062 350.914062 348.523438 C 350.59375 348.996094 350.285156 349.484375 349.964844 349.960938 C 344.425781 359.660156 338.8125 369.320312 333.175781 378.949219 C 332.210938 380.832031 331.234375 382.703125 330.269531 384.585938 C 348.652344 391.007812 368.417969 394.523438 388.988281 394.523438 C 408.890625 394.523438 428.039062 391.257812 445.90625 385.230469 C 436.136719 368.089844 425.640625 351.371094 416.820312 333.753906 Z M 416.820312 333.753906 " fill-opacity="1" fill-rule="nonzero"/></g><path fill="#729549" d="M 520.828125 336.074219 C 526.882812 329.402344 532.4375 322.253906 537.4375 314.71875 L 466.574219 314.71875 L 466.574219 314.761719 L 450.789062 314.761719 L 450.789062 314.71875 L 240.484375 314.71875 C 245.480469 322.253906 251.039062 329.386719 257.09375 336.074219 Z M 520.828125 336.074219 " fill-opacity="1" fill-rule="nonzero"/><path fill="#729549" d="M 313.675781 319.699219 C 313.675781 327.460938 307.382812 333.753906 299.621094 333.753906 C 294.054688 333.753906 289.265625 330.503906 286.992188 325.828125 C 284.871094 327.097656 282.414062 327.839844 279.761719 327.839844 C 272.378906 327.839844 266.347656 322.144531 265.761719 314.914062 C 265.316406 315.039062 264.867188 315.125 264.40625 315.191406 C 262.1875 320.023438 257.316406 323.386719 251.652344 323.386719 C 249.472656 323.386719 247.410156 322.882812 245.566406 321.988281 C 233.589844 305.742188 224.324219 287.390625 218.40625 267.585938 C 219.496094 267.304688 220.625 267.167969 221.796875 267.167969 C 228.203125 267.167969 233.605469 271.453125 235.292969 277.3125 C 237.832031 274.789062 241.335938 273.222656 245.21875 273.222656 C 252.976562 273.222656 259.273438 279.503906 259.273438 287.277344 C 259.273438 287.390625 259.257812 287.488281 259.242188 287.601562 C 260.222656 287.390625 261.210938 287.277344 262.246094 287.277344 C 269.628906 287.277344 275.671875 292.960938 276.242188 300.1875 C 277.375 299.894531 278.546875 299.730469 279.761719 299.730469 C 285.328125 299.730469 290.117188 302.964844 292.390625 307.65625 C 294.511719 306.386719 296.96875 305.644531 299.621094 305.644531 C 307.382812 305.644531 313.675781 311.941406 313.675781 319.699219 Z M 313.675781 319.699219 " fill-opacity="1" fill-rule="nonzero"/><path fill="#729549" d="M 464.621094 319.699219 C 464.621094 327.460938 470.917969 333.753906 478.675781 333.753906 C 484.246094 333.753906 489.03125 330.503906 491.308594 325.828125 C 493.429688 327.097656 495.886719 327.839844 498.539062 327.839844 C 505.921875 327.839844 511.949219 322.144531 512.535156 314.914062 C 512.984375 315.039062 513.429688 315.125 513.890625 315.191406 C 516.109375 320.023438 520.980469 323.386719 526.648438 323.386719 C 528.824219 323.386719 530.890625 322.882812 532.730469 321.988281 C 544.707031 305.742188 553.976562 287.390625 559.894531 267.585938 C 558.804688 267.304688 557.671875 267.167969 556.5 267.167969 C 550.09375 267.167969 544.695312 271.453125 543.003906 277.3125 C 540.464844 274.789062 536.960938 273.222656 533.082031 273.222656 C 525.320312 273.222656 519.027344 279.503906 519.027344 287.277344 C 519.027344 287.390625 519.039062 287.488281 519.054688 287.601562 C 518.078125 287.390625 517.085938 287.277344 516.054688 287.277344 C 508.671875 287.277344 502.628906 292.960938 502.054688 300.1875 C 500.925781 299.894531 499.75 299.730469 498.539062 299.730469 C 492.96875 299.730469 488.179688 302.964844 485.90625 307.65625 C 483.785156 306.386719 481.328125 305.644531 478.675781 305.644531 C 470.917969 305.644531 464.621094 311.941406 464.621094 319.699219 Z M 464.621094 319.699219 " fill-opacity="1" fill-rule="nonzero"/><path fill="#566c39" d="M 272.574219 348.367188 C 275.265625 348.367188 275.265625 344.183594 272.574219 344.183594 C 269.878906 344.183594 269.878906 348.367188 272.574219 348.367188 Z M 272.574219 348.367188 " fill-opacity="1" fill-rule="nonzero"/><path fill="#566c39" d="M 292.070312 348.367188 C 294.765625 348.367188 294.765625 344.183594 292.070312 344.183594 C 289.378906 344.183594 289.363281 348.367188 292.070312 348.367188 Z M 292.070312 348.367188 " fill-opacity="1" fill-rule="nonzero"/><path fill="#566c39" d="M 293.464844 355.332031 C 293.171875 355.332031 292.894531 355.332031 292.601562 355.332031 C 289.90625 355.332031 289.90625 359.519531 292.601562 359.519531 C 292.894531 359.519531 293.171875 359.519531 293.464844 359.519531 C 296.160156 359.519531 296.160156 355.332031 293.464844 355.332031 C 293.171875 355.332031 292.894531 355.332031 292.601562 355.332031 C 289.90625 355.332031 289.90625 359.519531 292.601562 359.519531 C 292.894531 359.519531 293.171875 359.519531 293.464844 359.519531 C 296.160156 359.519531 296.160156 355.332031 293.464844 355.332031 Z M 293.464844 355.332031 " fill-opacity="1" fill-rule="nonzero"/><path fill="#566c39" d="M 313.648438 347.671875 C 313.648438 348.132812 313.648438 348.605469 313.648438 349.066406 C 313.648438 350.15625 314.613281 351.214844 315.742188 351.160156 C 316.871094 351.105469 317.835938 350.238281 317.835938 349.066406 C 317.835938 348.605469 317.835938 348.132812 317.835938 347.671875 C 317.835938 346.582031 316.871094 345.523438 315.742188 345.578125 C 314.613281 345.632812 313.648438 346.5 313.648438 347.671875 Z M 313.648438 347.671875 " fill-opacity="1" fill-rule="nonzero"/><path fill="#566c39" d="M 310.171875 366.472656 C 312.867188 366.472656 312.867188 362.285156 310.171875 362.285156 C 307.480469 362.285156 307.464844 366.472656 310.171875 366.472656 Z M 310.171875 366.472656 " fill-opacity="1" fill-rule="nonzero"/><path fill="#566c39" d="M 332.449219 359.519531 C 335.140625 359.519531 335.140625 355.332031 332.449219 355.332031 C 329.753906 355.332031 329.753906 359.519531 332.449219 359.519531 Z M 332.449219 359.519531 " fill-opacity="1" fill-rule="nonzero"/><path fill="#566c39" d="M 325.484375 372.039062 C 325.023438 372.039062 324.550781 372.039062 324.089844 372.039062 C 323 372.039062 321.9375 373.003906 321.996094 374.132812 C 322.050781 375.265625 322.917969 376.226562 324.089844 376.226562 C 324.550781 376.226562 325.023438 376.226562 325.484375 376.226562 C 326.574219 376.226562 327.632812 375.265625 327.578125 374.132812 C 327.523438 372.988281 326.65625 372.039062 325.484375 372.039062 Z M 325.484375 372.039062 " fill-opacity="1" fill-rule="nonzero"/><path fill="#566c39" d="M 453.679688 372.652344 C 453.21875 372.195312 452.746094 371.71875 452.285156 371.257812 C 451.488281 370.460938 450.121094 370.460938 449.324219 371.257812 C 448.53125 372.054688 448.53125 373.421875 449.324219 374.21875 C 449.785156 374.679688 450.261719 375.152344 450.722656 375.613281 C 451.515625 376.410156 452.882812 376.410156 453.679688 375.613281 C 454.476562 374.804688 454.476562 373.449219 453.679688 372.652344 Z M 453.679688 372.652344 " fill-opacity="1" fill-rule="nonzero"/><path fill="#566c39" d="M 450.804688 359.519531 C 453.5 359.519531 453.5 355.332031 450.804688 355.332031 C 448.109375 355.332031 448.097656 359.519531 450.804688 359.519531 Z M 450.804688 359.519531 " fill-opacity="1" fill-rule="nonzero"/><path fill="#566c39" d="M 470.289062 355.332031 C 472.980469 355.332031 472.980469 351.144531 470.289062 351.144531 C 467.59375 351.144531 467.59375 355.332031 470.289062 355.332031 Z M 470.289062 355.332031 " fill-opacity="1" fill-rule="nonzero"/><path fill="#566c39" d="M 464.71875 363.679688 C 464.257812 363.679688 463.785156 363.679688 463.324219 363.679688 C 462.234375 363.679688 461.175781 364.644531 461.230469 365.773438 C 461.285156 366.902344 462.152344 367.867188 463.324219 367.867188 C 463.785156 367.867188 464.257812 367.867188 464.71875 367.867188 C 465.808594 367.867188 466.867188 366.902344 466.8125 365.773438 C 466.769531 364.644531 465.890625 363.679688 464.71875 363.679688 Z M 464.71875 363.679688 " fill-opacity="1" fill-rule="nonzero"/><path fill="#566c39" d="M 489.785156 348.367188 C 489.492188 348.367188 489.214844 348.367188 488.921875 348.367188 C 486.226562 348.367188 486.226562 352.554688 488.921875 352.554688 C 489.214844 352.554688 489.492188 352.554688 489.785156 352.554688 C 492.480469 352.554688 492.480469 348.367188 489.785156 348.367188 C 489.492188 348.367188 489.214844 348.367188 488.921875 348.367188 C 486.226562 348.367188 486.226562 352.554688 488.921875 352.554688 C 489.214844 352.554688 489.492188 352.554688 489.785156 352.554688 C 492.480469 352.554688 492.480469 348.367188 489.785156 348.367188 Z M 489.785156 348.367188 " fill-opacity="1" fill-rule="nonzero"/><path fill="#566c39" d="M 506.492188 346.988281 C 509.1875 346.988281 509.1875 342.800781 506.492188 342.800781 C 503.800781 342.800781 503.800781 346.988281 506.492188 346.988281 Z M 506.492188 346.988281 " fill-opacity="1" fill-rule="nonzero"/><path fill="#566c39" d="M 475.859375 366.472656 C 478.550781 366.472656 478.550781 362.285156 475.859375 362.285156 C 473.164062 362.285156 473.164062 366.472656 475.859375 366.472656 Z M 475.859375 366.472656 " fill-opacity="1" fill-rule="nonzero"/></svg>