<svg xmlns="http://www.w3.org/2000/svg" xmlns:xlink="http://www.w3.org/1999/xlink" width="1037" zoomAndPan="magnify" viewBox="0 0 777.75 432.749984" height="577" preserveAspectRatio="xMidYMid meet" version="1.0"><defs><clipPath id="d93d78bac8"><path d="M 0.101562 0 L 777.402344 0 L 777.402344 432.5 L 0.101562 432.5 Z M 0.101562 0 " clip-rule="nonzero"/></clipPath><clipPath id="6b24a76f53"><path d="M 231.378906 58.878906 L 546.195312 58.878906 L 546.195312 373.695312 L 231.378906 373.695312 Z M 231.378906 58.878906 " clip-rule="nonzero"/></clipPath></defs><g clip-path="url(#d93d78bac8)"><path fill="#ffffff" d="M 0.101562 0 L 777.402344 0 L 777.402344 432.5 L 0.101562 432.5 Z M 0.101562 0 " fill-opacity="1" fill-rule="nonzero"/><path fill="#ffffff" d="M 0.101562 0 L 777.402344 0 L 777.402344 432.5 L 0.101562 432.5 Z M 0.101562 0 " fill-opacity="1" fill-rule="nonzero"/></g><path fill="#4fba6f" d="M 356.359375 308.046875 L 291.476562 308.046875 C 289.578125 308.046875 288.046875 306.515625 288.046875 304.617188 L 288.046875 151.984375 C 288.046875 150.085938 289.578125 148.554688 291.476562 148.554688 L 356.359375 148.554688 C 358.230469 148.554688 359.757812 150.085938 359.757812 151.984375 L 359.757812 304.617188 C 359.757812 306.515625 358.230469 308.046875 356.359375 308.046875 Z M 356.359375 308.046875 " fill-opacity="1" fill-rule="evenodd"/><path fill="#3ba35a" d="M 356.359375 155.414062 L 291.476562 155.414062 C 289.578125 155.414062 288.046875 153.855469 288.046875 151.984375 L 288.046875 127.957031 C 288.046875 126.058594 289.578125 124.527344 291.476562 124.527344 L 356.359375 124.527344 C 358.230469 124.527344 359.757812 126.058594 359.757812 127.957031 L 359.757812 151.984375 C 359.757812 153.855469 358.230469 155.414062 356.359375 155.414062 Z M 356.359375 155.414062 " fill-opacity="1" fill-rule="evenodd"/><path fill="#ffc107" d="M 421.214844 308.046875 L 356.359375 308.046875 C 354.460938 308.046875 352.929688 306.515625 352.929688 304.617188 L 352.929688 151.984375 C 352.929688 150.085938 354.460938 148.554688 356.359375 148.554688 L 421.214844 148.554688 C 423.113281 148.554688 424.644531 150.085938 424.644531 151.984375 L 424.644531 304.617188 C 424.644531 306.515625 423.113281 308.046875 421.214844 308.046875 Z M 421.214844 308.046875 " fill-opacity="1" fill-rule="evenodd"/><path fill="#ffae06" d="M 421.214844 155.414062 L 356.359375 155.414062 C 354.460938 155.414062 352.929688 153.855469 352.929688 151.984375 L 352.929688 127.957031 C 352.929688 126.058594 354.460938 124.527344 356.359375 124.527344 L 421.214844 124.527344 C 423.113281 124.527344 424.644531 126.058594 424.644531 127.957031 L 424.644531 151.984375 C 424.644531 153.855469 423.113281 155.414062 421.214844 155.414062 Z M 421.214844 155.414062 " fill-opacity="1" fill-rule="evenodd"/><path fill="#5c9cee" d="M 486.101562 308.046875 L 421.214844 308.046875 C 419.34375 308.046875 417.816406 306.515625 417.816406 304.617188 L 417.816406 151.984375 C 417.816406 150.085938 419.34375 148.554688 421.214844 148.554688 L 486.101562 148.554688 C 488 148.554688 489.527344 150.085938 489.527344 151.984375 L 489.527344 304.617188 C 489.527344 306.515625 488 308.046875 486.101562 308.046875 Z M 486.101562 308.046875 " fill-opacity="1" fill-rule="evenodd"/><path fill="#3e80d6" d="M 486.101562 155.414062 L 421.214844 155.414062 C 419.34375 155.414062 417.816406 153.855469 417.816406 151.984375 L 417.816406 127.957031 C 417.816406 126.058594 419.34375 124.527344 421.214844 124.527344 L 486.101562 124.527344 C 488 124.527344 489.527344 126.058594 489.527344 127.957031 L 489.527344 151.984375 C 489.527344 153.855469 488 155.414062 486.101562 155.414062 Z M 486.101562 155.414062 " fill-opacity="1" fill-rule="evenodd"/><path fill="#f5f5f5" d="M 342.222656 143.398438 L 305.585938 143.398438 C 303.6875 143.398438 302.15625 141.867188 302.15625 139.96875 C 302.15625 138.070312 303.6875 136.542969 305.585938 136.542969 L 342.222656 136.542969 C 344.117188 136.542969 345.648438 138.070312 345.648438 139.96875 C 345.648438 141.867188 344.117188 143.398438 342.222656 143.398438 Z M 342.222656 143.398438 " fill-opacity="1" fill-rule="evenodd"/><path fill="#f5f5f5" d="M 407.105469 143.398438 L 370.46875 143.398438 C 368.570312 143.398438 367.042969 141.867188 367.042969 139.96875 C 367.042969 138.070312 368.570312 136.542969 370.46875 136.542969 L 407.105469 136.542969 C 409.003906 136.542969 410.535156 138.070312 410.535156 139.96875 C 410.535156 141.867188 409.003906 143.398438 407.105469 143.398438 Z M 407.105469 143.398438 " fill-opacity="1" fill-rule="evenodd"/><path fill="#f5f5f5" d="M 471.988281 143.398438 L 435.355469 143.398438 C 433.457031 143.398438 431.925781 141.867188 431.925781 139.96875 C 431.925781 138.070312 433.457031 136.542969 435.355469 136.542969 L 471.988281 136.542969 C 473.886719 136.542969 475.417969 138.070312 475.417969 139.96875 C 475.417969 141.867188 473.886719 143.398438 471.988281 143.398438 Z M 471.988281 143.398438 " fill-opacity="1" fill-rule="evenodd"/><path fill="#f5f5f5" d="M 337.828125 218.199219 L 303.148438 218.199219 C 301.277344 218.199219 299.71875 216.671875 299.71875 214.773438 L 299.71875 180.089844 C 299.71875 178.222656 301.25 176.691406 303.148438 176.691406 L 337.828125 176.691406 C 339.726562 176.691406 341.257812 178.222656 341.257812 180.121094 L 341.257812 214.773438 C 341.257812 216.671875 339.726562 218.199219 337.828125 218.199219 Z M 337.828125 218.199219 " fill-opacity="1" fill-rule="evenodd"/><path fill="#f5f5f5" d="M 337.828125 286.738281 L 303.148438 286.738281 C 301.277344 286.738281 299.71875 285.210938 299.71875 283.339844 L 299.71875 248.660156 C 299.71875 246.761719 301.25 245.230469 303.148438 245.230469 L 337.828125 245.230469 C 339.726562 245.230469 341.257812 246.761719 341.257812 248.660156 L 341.257812 283.339844 C 341.257812 285.210938 339.726562 286.738281 337.828125 286.738281 Z M 337.828125 286.738281 " fill-opacity="1" fill-rule="evenodd"/><path fill="#4fba6f" d="M 318.050781 205.082031 C 317.171875 205.082031 316.296875 204.742188 315.644531 204.0625 L 312.074219 200.519531 C 310.742188 199.1875 310.742188 197.007812 312.074219 195.675781 C 313.40625 194.34375 315.585938 194.34375 316.917969 195.675781 L 318.050781 196.808594 L 324.058594 190.800781 C 325.390625 189.46875 327.570312 189.46875 328.902344 190.800781 C 330.234375 192.132812 330.234375 194.316406 328.902344 195.644531 L 320.460938 204.0625 C 319.808594 204.742188 318.929688 205.082031 318.050781 205.082031 Z M 318.050781 205.082031 " fill-opacity="1" fill-rule="evenodd"/><path fill="#4fba6f" d="M 318.050781 273.621094 C 317.144531 273.621094 316.265625 273.28125 315.644531 272.628906 L 312.074219 269.085938 C 310.742188 267.726562 310.742188 265.574219 312.074219 264.242188 C 313.40625 262.910156 315.585938 262.910156 316.917969 264.242188 L 318.050781 265.375 L 324.058594 259.371094 C 325.390625 258.039062 327.570312 258.039062 328.902344 259.371094 C 330.234375 260.699219 330.234375 262.855469 328.902344 264.214844 L 320.460938 272.628906 C 319.835938 273.28125 318.957031 273.621094 318.050781 273.621094 Z M 318.050781 273.621094 " fill-opacity="1" fill-rule="evenodd"/><path fill="#f5f5f5" d="M 373.105469 252.9375 C 371.601562 252.9375 370.214844 251.945312 369.816406 250.414062 L 360.835938 216.925781 C 360.355469 215.113281 361.429688 213.214844 363.246094 212.730469 L 396.734375 203.75 C 398.578125 203.269531 400.445312 204.34375 400.929688 206.1875 L 409.910156 239.675781 C 410.136719 240.554688 410.023438 241.492188 409.570312 242.253906 C 409.117188 243.050781 408.351562 243.617188 407.472656 243.871094 L 373.984375 252.824219 C 373.699219 252.910156 373.386719 252.9375 373.105469 252.9375 Z M 373.105469 252.9375 " fill-opacity="1" fill-rule="evenodd"/><path fill="#ffc107" d="M 377.15625 228.058594 C 375.625 228.058594 374.238281 227.039062 373.839844 225.511719 C 373.359375 223.695312 374.4375 221.828125 376.25 221.34375 L 389.765625 217.71875 C 391.605469 217.238281 393.476562 218.3125 393.957031 220.125 C 394.441406 221.96875 393.363281 223.839844 391.550781 224.320312 L 378.035156 227.945312 C 377.722656 228.03125 377.441406 228.058594 377.15625 228.058594 Z M 377.15625 228.058594 " fill-opacity="1" fill-rule="evenodd"/><path fill="#ffc107" d="M 380.074219 238.996094 C 378.574219 238.996094 377.183594 238.003906 376.789062 236.476562 C 376.277344 234.632812 377.355469 232.765625 379.195312 232.28125 L 392.710938 228.65625 C 394.523438 228.171875 396.394531 229.25 396.90625 231.0625 C 397.386719 232.90625 396.308594 234.777344 394.46875 235.257812 L 380.953125 238.882812 C 380.667969 238.96875 380.359375 238.996094 380.074219 238.996094 Z M 380.074219 238.996094 " fill-opacity="1" fill-rule="evenodd"/><path fill="#f5f5f5" d="M 471 218.199219 L 436.316406 218.199219 C 434.449219 218.199219 432.917969 216.671875 432.917969 214.773438 L 432.917969 180.089844 C 432.917969 178.222656 434.449219 176.691406 436.316406 176.691406 L 471 176.691406 C 472.898438 176.691406 474.425781 178.222656 474.425781 180.121094 L 474.425781 214.773438 C 474.425781 216.671875 472.898438 218.199219 471 218.199219 Z M 471 218.199219 " fill-opacity="1" fill-rule="evenodd"/><path fill="#f5f5f5" d="M 471 286.738281 L 436.316406 286.738281 C 434.449219 286.738281 432.917969 285.210938 432.917969 283.339844 L 432.917969 248.660156 C 432.917969 246.761719 434.449219 245.230469 436.316406 245.230469 L 471 245.230469 C 472.898438 245.230469 474.425781 246.761719 474.425781 248.660156 L 474.425781 283.339844 C 474.425781 285.210938 472.898438 286.738281 471 286.738281 Z M 471 286.738281 " fill-opacity="1" fill-rule="evenodd"/><path fill="#5c9cee" d="M 451.222656 205.082031 C 450.34375 205.082031 449.464844 204.742188 448.8125 204.0625 L 445.269531 200.519531 C 443.910156 199.1875 443.910156 197.007812 445.269531 195.675781 C 446.601562 194.34375 448.757812 194.34375 450.089844 195.675781 L 451.222656 196.808594 L 457.226562 190.800781 C 458.589844 189.46875 460.742188 189.46875 462.074219 190.800781 C 463.40625 192.132812 463.40625 194.316406 462.074219 195.644531 L 453.65625 204.0625 C 452.976562 204.742188 452.101562 205.082031 451.222656 205.082031 Z M 451.222656 205.082031 " fill-opacity="1" fill-rule="evenodd"/><path fill="#5c9cee" d="M 451.222656 273.621094 C 450.316406 273.621094 449.464844 273.28125 448.8125 272.628906 L 445.269531 269.085938 C 443.910156 267.726562 443.910156 265.574219 445.269531 264.242188 C 446.601562 262.910156 448.757812 262.910156 450.089844 264.242188 L 451.222656 265.375 L 457.226562 259.371094 C 458.558594 258.039062 460.742188 258.039062 462.074219 259.371094 C 463.40625 260.699219 463.40625 262.855469 462.074219 264.214844 L 453.65625 272.628906 C 453.007812 273.28125 452.128906 273.621094 451.222656 273.621094 Z M 451.222656 273.621094 " fill-opacity="1" fill-rule="evenodd"/><g clip-path="url(#6b24a76f53)"><path fill="#4fba6f" d="M 388.800781 58.878906 C 475.730469 58.878906 546.195312 129.34375 546.195312 216.300781 C 546.195312 303.230469 475.730469 373.695312 388.800781 373.695312 C 301.84375 373.695312 231.378906 303.230469 231.378906 216.300781 C 231.378906 129.34375 301.84375 58.878906 388.800781 58.878906 Z M 388.800781 72.222656 C 468.363281 72.222656 532.878906 136.710938 532.878906 216.300781 C 532.878906 295.863281 468.363281 360.378906 388.800781 360.378906 C 309.210938 360.378906 244.722656 295.863281 244.722656 216.300781 C 244.722656 136.710938 309.210938 72.222656 388.800781 72.222656 Z M 388.800781 72.222656 " fill-opacity="1" fill-rule="evenodd"/></g><path fill="#ffc107" d="M 388.800781 67.773438 C 470.828125 67.773438 537.300781 134.273438 537.300781 216.300781 C 537.300781 298.328125 470.828125 364.800781 388.800781 364.800781 C 306.773438 364.800781 240.273438 298.328125 240.273438 216.300781 C 240.273438 134.273438 306.773438 67.773438 388.800781 67.773438 Z M 388.800781 72.222656 C 468.363281 72.222656 532.878906 136.710938 532.878906 216.300781 C 532.878906 295.863281 468.363281 360.378906 388.800781 360.378906 C 309.210938 360.378906 244.722656 295.863281 244.722656 216.300781 C 244.722656 136.710938 309.210938 72.222656 388.800781 72.222656 Z M 388.800781 72.222656 " fill-opacity="1" fill-rule="evenodd"/></svg>